<mxfile host="65bd71144e">
    <diagram id="5TAbmly4IlOM0eNRvKiz" name="Page-1">
        <mxGraphModel dx="1008" dy="792" grid="1" gridSize="10" guides="1" tooltips="1" connect="1" arrows="1" fold="1" page="1" pageScale="1" pageWidth="827" pageHeight="1169" math="0" shadow="0">
            <root>
                <mxCell id="0"/>
                <mxCell id="1" parent="0"/>
                <mxCell id="2" value="Konstrainer-Core" style="shape=umlLifeline;perimeter=lifelinePerimeter;whiteSpace=wrap;html=1;container=1;collapsible=0;recursiveResize=0;outlineConnect=0;" parent="1" vertex="1">
                    <mxGeometry x="200" y="80" width="100" height="360" as="geometry"/>
                </mxCell>
                <mxCell id="7" value="createDeployment(template, ssl_cert,dsl_id)" style="html=1;verticalAlign=bottom;endArrow=block;" parent="2" target="6" edge="1">
                    <mxGeometry x="-0.0214" width="80" relative="1" as="geometry">
                        <mxPoint x="49" y="100" as="sourcePoint"/>
                        <mxPoint x="178.5" y="100" as="targetPoint"/>
                        <mxPoint as="offset"/>
                    </mxGeometry>
                </mxCell>
                <mxCell id="12" value="createMWHC" style="html=1;verticalAlign=bottom;endArrow=block;" parent="2" target="6" edge="1">
                    <mxGeometry width="80" relative="1" as="geometry">
                        <mxPoint x="50" y="150" as="sourcePoint"/>
                        <mxPoint x="130" y="150" as="targetPoint"/>
                    </mxGeometry>
                </mxCell>
                <mxCell id="4" value="" style="shape=umlLifeline;participant=umlActor;perimeter=lifelinePerimeter;whiteSpace=wrap;html=1;container=1;collapsible=0;recursiveResize=0;verticalAlign=top;spacingTop=36;outlineConnect=0;" parent="1" vertex="1">
                    <mxGeometry x="90" y="80" width="20" height="360" as="geometry"/>
                </mxCell>
                <mxCell id="5" value="spawnDsl(dsl_id)" style="html=1;verticalAlign=bottom;endArrow=block;" parent="4" target="2" edge="1">
                    <mxGeometry width="80" relative="1" as="geometry">
                        <mxPoint x="10" y="70" as="sourcePoint"/>
                        <mxPoint x="90" y="70" as="targetPoint"/>
                    </mxGeometry>
                </mxCell>
                <mxCell id="6" value="k8s api" style="shape=umlLifeline;perimeter=lifelinePerimeter;whiteSpace=wrap;html=1;container=1;collapsible=0;recursiveResize=0;outlineConnect=0;" parent="1" vertex="1">
                    <mxGeometry x="440" y="80" width="100" height="360" as="geometry"/>
                </mxCell>
                <mxCell id="8" value="&amp;lt;&amp;lt;Spawn&amp;gt;&amp;gt;" style="endArrow=open;endSize=12;dashed=1;html=1;" parent="6" target="9" edge="1">
                    <mxGeometry x="-0.2233" width="160" relative="1" as="geometry">
                        <mxPoint x="50" y="120" as="sourcePoint"/>
                        <mxPoint x="210" y="120" as="targetPoint"/>
                        <Array as="points">
                            <mxPoint x="120" y="120"/>
                        </Array>
                        <mxPoint as="offset"/>
                    </mxGeometry>
                </mxCell>
                <mxCell id="9" value="instance: Konstrainer-Agent" style="shape=umlLifeline;perimeter=lifelinePerimeter;whiteSpace=wrap;html=1;container=1;collapsible=0;recursiveResize=0;outlineConnect=0;" parent="1" vertex="1">
                    <mxGeometry x="570" y="160" width="110" height="280" as="geometry"/>
                </mxCell>
            </root>
        </mxGraphModel>
    </diagram>
</mxfile>